<svg xmlns="http://www.w3.org/2000/svg" width="1200" height="800" viewBox="0 0 1200 800" role="img" aria-label="Hydration Tip">
  <defs>
    <linearGradient id="bg" x1="0" y1="0" x2="1" y2="1"><stop offset="0%" stop-color="#ecfeff"/><stop offset="100%" stop-color="#a5f3fc"/></linearGradient>
    <filter id="shadow"><feDropShadow dx="0" dy="18" stdDeviation="22" flood-color="#0f172a" flood-opacity=".18"/></filter>
  </defs>
  <rect width="1200" height="800" rx="52" fill="url(#bg)"/>
  <circle cx="140" cy="130" r="80" fill="#fff" opacity=".22"/><circle cx="1110" cy="680" r="140" fill="#fff" opacity=".18"/>
  <path d="M90 625c190-82 357-52 520-10 192 49 342 70 520-20v205H90z" fill="#fff" opacity=".28"/>
  
        <path d="M905 130c62 86 104 142 104 203 0 66-48 113-104 113S801 399 801 333c0-61 42-117 104-203z" fill="#bae6fd" stroke="#38bdf8" stroke-width="12"/>
        <path d="M858 350c22 31 70 32 94 0" fill="none" stroke="#0284c7" stroke-width="10" stroke-linecap="round"/>
        <ellipse cx="900" cy="520" rx="115" ry="36" fill="#e0f2fe" stroke="#38bdf8" stroke-width="10"/>
  <g filter="url(#shadow)" transform="translate(0 8)">
    <ellipse cx="520" cy="573" rx="235" ry="42" fill="#64748b" opacity=".14"/>
    <path d="M410 465c-72-120-22-225 112-225s183 105 112 225c77 21 124 83 124 155H286c0-72 47-134 124-155Z" fill="#ecfeff" stroke="#06b6d4" stroke-width="12" stroke-linejoin="round"/>
    <path d="M420 260l42-108 72 94M625 246l72-94 42 108" fill="#ecfeff" stroke="#06b6d4" stroke-width="12" stroke-linejoin="round"/>
    <circle cx="532" cy="352" r="126" fill="#ecfeff"/>
    <circle cx="500" cy="342" r="15" fill="#1f2937"/><circle cx="625" cy="342" r="15" fill="#1f2937"/>
    <path d="M552 385q11 13 22 0" fill="none" stroke="#1f2937" stroke-width="9" stroke-linecap="round"/>
    <path d="M574 397q-35 42-76 13M574 397q35 42 76 13" fill="none" stroke="#1f2937" stroke-width="8" stroke-linecap="round"/>
    <path d="M410 380c-70-20-126-18-178 6M411 416c-72 0-128 16-175 48M690 380c70-20 126-18 178 6M690 416c72 0 128 16 175 48" fill="none" stroke="#06b6d4" stroke-width="6" stroke-linecap="round" opacity=".5"/>
    <path d="M300 570c-78 3-138 47-154 106" fill="none" stroke="#06b6d4" stroke-width="20" stroke-linecap="round"/>
  </g>
  <text x="600" y="700" text-anchor="middle" font-size="44" font-weight="800" font-family="Arial, sans-serif" fill="#172554">Hydration Tip</text>
  <text x="600" y="738" text-anchor="middle" font-size="23" font-family="Arial, sans-serif" fill="#475569">Fresh water in every room</text>
</svg>