<svg xmlns="http://www.w3.org/2000/svg" width="1200" height="800" viewBox="0 0 1200 800" role="img" aria-label="Whiskers&#x27; Sunbeam">
  <defs>
    <linearGradient id="bg" x1="0" y1="0" x2="1" y2="1"><stop offset="0%" stop-color="#fff7ed"/><stop offset="100%" stop-color="#fde68a"/></linearGradient>
    <filter id="shadow"><feDropShadow dx="0" dy="18" stdDeviation="22" flood-color="#0f172a" flood-opacity=".18"/></filter>
  </defs>
  <rect width="1200" height="800" rx="52" fill="url(#bg)"/>
  <circle cx="140" cy="130" r="80" fill="#fff" opacity=".22"/><circle cx="1110" cy="680" r="140" fill="#fff" opacity=".18"/>
  <path d="M90 625c190-82 357-52 520-10 192 49 342 70 520-20v205H90z" fill="#fff" opacity=".28"/>
  
        <circle cx="910" cy="150" r="54" fill="#fbbf24" opacity=".75"/>
        <g stroke="#f59e0b" stroke-width="8" stroke-linecap="round" opacity=".65">
          <path d="M910 60v38"/><path d="M910 202v38"/><path d="M820 150h38"/><path d="M962 150h38"/>
          <path d="M845 85l28 28"/><path d="M947 187l28 28"/><path d="M975 85l-28 28"/><path d="M873 187l-28 28"/>
        </g>
  <g filter="url(#shadow)" transform="translate(0 8)">
    <ellipse cx="520" cy="573" rx="235" ry="42" fill="#64748b" opacity=".14"/>
    <path d="M410 465c-72-120-22-225 112-225s183 105 112 225c77 21 124 83 124 155H286c0-72 47-134 124-155Z" fill="#fff7ed" stroke="#f59e0b" stroke-width="12" stroke-linejoin="round"/>
    <path d="M420 260l42-108 72 94M625 246l72-94 42 108" fill="#fff7ed" stroke="#f59e0b" stroke-width="12" stroke-linejoin="round"/>
    <circle cx="532" cy="352" r="126" fill="#fff7ed"/>
    <path d="M476 342q24 22 48 0M602 342q24 22 48 0" fill="none" stroke="#1f2937" stroke-width="12" stroke-linecap="round"/>
    <path d="M552 385q11 13 22 0" fill="none" stroke="#1f2937" stroke-width="9" stroke-linecap="round"/>
    <path d="M574 397q-35 42-76 13M574 397q35 42 76 13" fill="none" stroke="#1f2937" stroke-width="8" stroke-linecap="round"/>
    <path d="M410 380c-70-20-126-18-178 6M411 416c-72 0-128 16-175 48M690 380c70-20 126-18 178 6M690 416c72 0 128 16 175 48" fill="none" stroke="#f59e0b" stroke-width="6" stroke-linecap="round" opacity=".5"/>
    <path d="M300 570c-78 3-138 47-154 106" fill="none" stroke="#f59e0b" stroke-width="20" stroke-linecap="round"/>
  </g>
  <text x="600" y="700" text-anchor="middle" font-size="44" font-weight="800" font-family="Arial, sans-serif" fill="#172554">Whiskers&#x27; Sunbeam</text>
  <text x="600" y="738" text-anchor="middle" font-size="23" font-family="Arial, sans-serif" fill="#475569">Cozy rescue-cat update</text>
</svg>