<svg xmlns="http://www.w3.org/2000/svg" width="1200" height="800" viewBox="0 0 1200 800" role="img" aria-label="Cozy Igloo Bed">
  <defs><linearGradient id="bg" x1="0" y1="0" x2="1" y2="1"><stop offset="0%" stop-color="#eef2ff"/><stop offset="100%" stop-color="#c7d2fe"/></linearGradient><filter id="shadow"><feDropShadow dx="0" dy="18" stdDeviation="22" flood-color="#0f172a" flood-opacity=".18"/></filter></defs>
  <rect width="1200" height="800" rx="52" fill="url(#bg)"/>
  <circle cx="150" cy="145" r="80" fill="#fff" opacity=".22"/><circle cx="1060" cy="650" r="140" fill="#fff" opacity=".18"/>
  <path d="M70 650c160-75 300-50 450-15 240 55 425 50 610-45v210H70z" fill="#fff" opacity=".28"/>
  <g filter="url(#shadow)">
        <path d="M350 500c0-150 105-260 250-260s250 110 250 260v120H350z" fill="#dbeafe" stroke="#4f46e5" stroke-width="14" stroke-linejoin="round"/>
        <path d="M460 505c0-82 57-145 140-145s140 63 140 145v115H460z" fill="#eef2ff" stroke="#4f46e5" stroke-width="12"/>
        <ellipse cx="600" cy="625" rx="260" ry="58" fill="#c7d2fe" stroke="#4f46e5" stroke-width="12"/>
        <circle cx="600" cy="535" r="46" fill="#fff7ed" stroke="#f59e0b" stroke-width="8"/>
        <path d="M578 532q22 18 44 0" stroke="#92400e" stroke-width="8" stroke-linecap="round" fill="none"/></g>
  <text x="600" y="710" text-anchor="middle" font-size="44" font-weight="800" font-family="Arial, sans-serif" fill="#172554">Cozy Igloo Bed</text>
  <text x="600" y="748" text-anchor="middle" font-size="23" font-family="Arial, sans-serif" fill="#475569">Original illustrated warm cat bed</text>
</svg>