<svg xmlns="http://www.w3.org/2000/svg" width="1200" height="800" viewBox="0 0 1200 800" role="img" aria-label="Sisal Scratcher">
  <defs><linearGradient id="bg" x1="0" y1="0" x2="1" y2="1"><stop offset="0%" stop-color="#f8fafc"/><stop offset="100%" stop-color="#cbd5e1"/></linearGradient><filter id="shadow"><feDropShadow dx="0" dy="18" stdDeviation="22" flood-color="#0f172a" flood-opacity=".18"/></filter></defs>
  <rect width="1200" height="800" rx="52" fill="url(#bg)"/>
  <circle cx="150" cy="145" r="80" fill="#fff" opacity=".22"/><circle cx="1060" cy="650" r="140" fill="#fff" opacity=".18"/>
  <path d="M70 650c160-75 300-50 450-15 240 55 425 50 610-45v210H70z" fill="#fff" opacity=".28"/>
  <g filter="url(#shadow)">
        <ellipse cx="600" cy="650" rx="230" ry="55" fill="#e2e8f0" stroke="#64748b" stroke-width="12"/>
        <rect x="540" y="215" width="120" height="410" rx="36" fill="#f5d0a9" stroke="#64748b" stroke-width="12"/>
        <g stroke="#a16207" stroke-width="8" opacity=".65"><path d="M552 270h96"/><path d="M552 325h96"/><path d="M552 380h96"/><path d="M552 435h96"/><path d="M552 490h96"/><path d="M552 545h96"/></g>
        <circle cx="715" cy="285" r="45" fill="#fef3c7" stroke="#64748b" stroke-width="10"/>
        <path d="M705 275q12 12 24 0M712 300q10 9 20 0" stroke="#92400e" stroke-width="7" fill="none" stroke-linecap="round"/></g>
  <text x="600" y="710" text-anchor="middle" font-size="44" font-weight="800" font-family="Arial, sans-serif" fill="#172554">Sisal Scratcher</text>
  <text x="600" y="748" text-anchor="middle" font-size="23" font-family="Arial, sans-serif" fill="#475569">Original illustrated product card</text>
</svg>