<svg xmlns="http://www.w3.org/2000/svg" width="1200" height="800" viewBox="0 0 1200 800" role="img" aria-label="Shelter Care Package">
  <defs><linearGradient id="bg" x1="0" y1="0" x2="1" y2="1"><stop offset="0%" stop-color="#ecfdf5"/><stop offset="100%" stop-color="#bbf7d0"/></linearGradient><filter id="shadow"><feDropShadow dx="0" dy="18" stdDeviation="22" flood-color="#0f172a" flood-opacity=".18"/></filter></defs>
  <rect width="1200" height="800" rx="52" fill="url(#bg)"/>
  <circle cx="150" cy="145" r="80" fill="#fff" opacity=".22"/><circle cx="1060" cy="650" r="140" fill="#fff" opacity=".18"/>
  <path d="M70 650c160-75 300-50 450-15 240 55 425 50 610-45v210H70z" fill="#fff" opacity=".28"/>
  <g filter="url(#shadow)">
        <path d="M375 360l225-110 225 110-225 120z" fill="#fed7aa" stroke="#059669" stroke-width="12" stroke-linejoin="round"/>
        <path d="M375 360v205l225 125 225-125V360L600 480z" fill="#fdba74" stroke="#059669" stroke-width="12" stroke-linejoin="round"/>
        <path d="M600 480v210M465 410l225-110M735 410L510 300" stroke="#c2410c" stroke-width="8" opacity=".55"/>
        <circle cx="345" cy="270" r="36" fill="#dcfce7" stroke="#22c55e" stroke-width="8"/><path d="M330 270l13 14 28-33" fill="none" stroke="#16a34a" stroke-width="8" stroke-linecap="round" stroke-linejoin="round"/></g>
  <text x="600" y="710" text-anchor="middle" font-size="44" font-weight="800" font-family="Arial, sans-serif" fill="#172554">Shelter Care Package</text>
  <text x="600" y="748" text-anchor="middle" font-size="23" font-family="Arial, sans-serif" fill="#475569">Original illustrated donation box</text>
</svg>