<svg xmlns="http://www.w3.org/2000/svg" width="1200" height="800" viewBox="0 0 1200 800" role="img" aria-label="Salmon Kitten Kibble">
  <defs><linearGradient id="bg" x1="0" y1="0" x2="1" y2="1"><stop offset="0%" stop-color="#fff7ed"/><stop offset="100%" stop-color="#fed7aa"/></linearGradient><filter id="shadow"><feDropShadow dx="0" dy="18" stdDeviation="22" flood-color="#0f172a" flood-opacity=".18"/></filter></defs>
  <rect width="1200" height="800" rx="52" fill="url(#bg)"/>
  <circle cx="150" cy="145" r="80" fill="#fff" opacity=".22"/><circle cx="1060" cy="650" r="140" fill="#fff" opacity=".18"/>
  <path d="M70 650c160-75 300-50 450-15 240 55 425 50 610-45v210H70z" fill="#fff" opacity=".28"/>
  <g filter="url(#shadow)">
        <path d="M480 190h250l55 400c9 67-33 108-94 108H520c-61 0-103-41-94-108z" fill="#fff7ed" stroke="#f97316" stroke-width="14" stroke-linejoin="round"/>
        <path d="M500 190c20-62 200-62 220 0" fill="#fed7aa" stroke="#f97316" stroke-width="12"/>
        <circle cx="603" cy="430" r="78" fill="#ffedd5" stroke="#f97316" stroke-width="10"/>
        <path d="M565 412q39 35 78 0" fill="none" stroke="#9a3412" stroke-width="12" stroke-linecap="round"/>
        <circle cx="570" cy="378" r="10" fill="#9a3412"/><circle cx="640" cy="378" r="10" fill="#9a3412"/>
        <circle cx="400" cy="620" r="32" fill="#f59e0b" opacity=".85"/><circle cx="810" cy="620" r="28" fill="#f59e0b" opacity=".75"/></g>
  <text x="600" y="710" text-anchor="middle" font-size="44" font-weight="800" font-family="Arial, sans-serif" fill="#172554">Salmon Kitten Kibble</text>
  <text x="600" y="748" text-anchor="middle" font-size="23" font-family="Arial, sans-serif" fill="#475569">Original illustrated product card</text>
</svg>