<svg xmlns="http://www.w3.org/2000/svg" width="1200" height="800" viewBox="0 0 1200 800" role="img" aria-label="Feather Wand Toy">
  <defs><linearGradient id="bg" x1="0" y1="0" x2="1" y2="1"><stop offset="0%" stop-color="#fdf2f8"/><stop offset="100%" stop-color="#fbcfe8"/></linearGradient><filter id="shadow"><feDropShadow dx="0" dy="18" stdDeviation="22" flood-color="#0f172a" flood-opacity=".18"/></filter></defs>
  <rect width="1200" height="800" rx="52" fill="url(#bg)"/>
  <circle cx="150" cy="145" r="80" fill="#fff" opacity=".22"/><circle cx="1060" cy="650" r="140" fill="#fff" opacity=".18"/>
  <path d="M70 650c160-75 300-50 450-15 240 55 425 50 610-45v210H70z" fill="#fff" opacity=".28"/>
  <g filter="url(#shadow)">
        <path d="M420 610L790 230" stroke="#64748b" stroke-width="18" stroke-linecap="round"/>
        <path d="M755 220c-70 20-105 75-112 132 55-7 111-42 132-112z" fill="#f9a8d4" stroke="#db2777" stroke-width="10"/>
        <path d="M822 170c-70 20-105 75-112 132 55-7 111-42 132-112z" fill="#fbcfe8" stroke="#db2777" stroke-width="10"/>
        <circle cx="410" cy="625" r="34" fill="#e2e8f0" stroke="#64748b" stroke-width="10"/>
        <path d="M625 395q-65 10-88 72" stroke="#94a3b8" stroke-width="9" stroke-dasharray="14 18" fill="none" stroke-linecap="round"/></g>
  <text x="600" y="710" text-anchor="middle" font-size="44" font-weight="800" font-family="Arial, sans-serif" fill="#172554">Feather Wand Toy</text>
  <text x="600" y="748" text-anchor="middle" font-size="23" font-family="Arial, sans-serif" fill="#475569">Original illustrated enrichment toy</text>
</svg>